<?xml version="1.0" standalone="no"?>
<!DOCTYPE svg PUBLIC "-//W3C//DTD SVG 20010904//EN"
 "http://www.w3.org/TR/2001/REC-SVG-20010904/DTD/svg10.dtd">
<svg version="1.0" xmlns="http://www.w3.org/2000/svg"
 width="450.000000pt" height="450.000000pt" viewBox="0 0 450.000000 450.000000"
 preserveAspectRatio="xMidYMid meet">

<g transform="translate(0.000000,450.000000) scale(0.100000,-0.100000)"
fill="#000000" stroke="none">
<path d="M2200 4210 c0 -5 -6 -10 -14 -10 -23 0 -145 -143 -212 -250 -175
-276 -214 -548 -117 -810 22 -61 110 -230 132 -255 10 -11 27 -36 39 -55 11
-19 41 -55 66 -80 44 -42 46 -47 46 -101 0 -64 -12 -82 -31 -47 -24 44 -124
141 -191 184 -184 118 -357 170 -603 181 -130 6 -130 6 -161 -20 -52 -44 -59
-73 -45 -198 20 -190 75 -360 162 -507 30 -52 127 -170 148 -181 10 -6 37 -26
61 -46 113 -94 409 -195 573 -195 91 0 87 6 87 -146 0 -74 -3 -134 -7 -134 -3
0 -39 36 -80 79 -170 183 -416 285 -723 298 l-145 6 -31 -26 c-52 -44 -59 -73
-45 -198 20 -188 77 -365 164 -511 33 -55 137 -168 198 -214 147 -113 359
-187 579 -203 l85 -6 3 -224 c2 -207 4 -226 23 -252 11 -16 34 -36 51 -45 38
-20 78 -5 113 41 24 31 25 36 27 256 l3 224 85 6 c165 12 304 50 449 122 276
139 451 424 492 804 14 127 7 156 -45 200 l-31 26 -145 -6 c-307 -13 -553
-115 -723 -298 -41 -43 -77 -79 -80 -79 -4 0 -7 60 -7 134 0 152 -4 146 87
146 120 0 331 58 468 130 154 80 279 211 358 375 65 134 101 264 118 424 14
125 7 154 -45 198 -31 26 -31 26 -166 20 -242 -11 -415 -63 -598 -181 -67 -43
-167 -140 -191 -184 -17 -32 -31 -18 -31 29 0 32 8 51 43 94 83 105 102 131
132 180 63 106 114 227 142 334 23 91 23 266 0 353 -61 232 -214 475 -391 616
-18 14 -76 16 -76 2z m108 -341 c65 -91 127 -214 147 -294 20 -78 20 -242 0
-320 -19 -77 -94 -226 -152 -305 l-46 -61 -24 23 c-61 56 -158 225 -191 332
-31 97 -31 265 -1 362 22 71 63 161 102 224 36 59 90 121 101 117 6 -2 35 -37
64 -78z m-768 -1141 c256 -61 429 -219 510 -466 19 -57 50 -195 50 -221 0 -28
-197 2 -328 50 -239 87 -384 277 -438 574 -8 44 -14 83 -14 86 0 12 133 -2
220 -23z m1630 25 c0 -29 -33 -179 -50 -233 -29 -87 -62 -149 -121 -230 -100
-137 -309 -238 -536 -257 -85 -7 -81 -16 -53 115 21 99 68 227 100 272 11 16
20 32 20 37 0 5 37 46 83 90 121 117 271 184 457 203 41 4 81 8 88 9 6 0 12
-2 12 -6z m-1635 -1074 c159 -37 247 -83 343 -181 80 -81 109 -126 154 -236
32 -80 71 -249 63 -271 -4 -10 -19 -12 -68 -7 -398 42 -624 247 -693 631 -8
44 -14 84 -14 88 0 11 123 -2 215 -24z m1634 19 c-1 -25 -27 -153 -42 -206
-58 -202 -202 -368 -385 -442 -112 -45 -332 -85 -346 -61 -9 14 21 162 51 246
40 110 86 185 166 264 117 115 254 177 447 200 98 12 110 12 109 -1z"/>
<path d="M723 3892 c-31 -27 -73 -88 -73 -107 0 -18 755 -767 788 -781 37 -16
58 -9 105 34 29 28 35 67 16 105 -21 42 -763 777 -784 777 -11 0 -34 -13 -52
-28z"/>
<path d="M3304 1256 c-25 -25 -34 -43 -34 -67 0 -30 25 -58 253 -287 138 -139
260 -258 269 -263 42 -23 128 57 128 119 0 34 -15 51 -232 270 -128 128 -245
240 -260 248 -46 24 -86 18 -124 -20z"/>
</g>
</svg>
