<?xml version="1.0" standalone="no"?>
<!DOCTYPE svg PUBLIC "-//W3C//DTD SVG 20010904//EN"
 "http://www.w3.org/TR/2001/REC-SVG-20010904/DTD/svg10.dtd">
<svg version="1.0" xmlns="http://www.w3.org/2000/svg"
 width="450.000000pt" height="450.000000pt" viewBox="0 0 450.000000 450.000000"
 preserveAspectRatio="xMidYMid meet">

<g transform="translate(0.000000,450.000000) scale(0.100000,-0.100000)"
fill="#000000" stroke="none">
<path d="M2338 4223 c-1 -5 -29 -25 -60 -46 -123 -83 -293 -268 -335 -364 -24
-55 -23 -186 2 -238 60 -126 171 -188 289 -163 98 21 160 79 192 183 23 73 65
117 128 135 71 20 131 63 163 117 24 42 28 58 28 128 0 69 -4 86 -27 127 -15
25 -47 60 -70 77 -24 16 -48 35 -55 41 -14 11 -250 14 -255 3z m188 -132 c71
-32 107 -96 84 -150 -17 -42 -48 -66 -107 -85 -101 -33 -175 -110 -203 -211
-8 -29 -25 -56 -48 -76 -30 -27 -41 -30 -75 -26 -46 6 -83 37 -108 92 -24 52
-24 70 5 130 64 135 303 345 391 345 11 0 38 -9 61 -19z"/>
<path d="M1408 4025 c-87 -24 -155 -81 -198 -165 -30 -60 -43 -184 -37 -360 6
-193 24 -249 102 -325 62 -60 124 -85 215 -85 83 0 153 37 202 107 31 45 33
53 33 134 0 75 -3 92 -29 138 -37 69 -37 104 3 191 30 65 33 79 29 144 -7 112
-68 190 -174 222 -56 17 -83 17 -146 -1z m130 -139 c32 -17 62 -65 62 -99 0
-15 -14 -54 -32 -85 -29 -51 -32 -66 -32 -137 -1 -71 3 -87 32 -142 17 -34 32
-74 32 -89 0 -65 -70 -121 -138 -110 -49 7 -106 48 -125 88 -40 85 -48 350
-13 464 30 96 138 152 214 110z"/>
<path d="M3095 3961 c-113 -29 -205 -149 -205 -266 0 -123 95 -236 224 -265
107 -24 231 40 289 150 66 126 9 293 -124 361 -43 22 -138 32 -184 20z m136
-154 c19 -12 42 -40 53 -61 16 -33 17 -43 6 -79 -22 -75 -84 -116 -152 -101
-69 15 -108 62 -108 131 0 50 18 82 59 110 44 30 98 30 142 0z"/>
<path d="M3420 3398 c-17 -19 -20 -35 -20 -129 0 -176 40 -272 169 -400 79
-78 140 -116 230 -141 83 -23 145 -23 196 1 125 58 150 205 64 386 -26 54
-145 186 -209 230 -78 54 -158 75 -290 75 -110 0 -121 -2 -140 -22z m245 -122
c77 -20 114 -43 188 -117 81 -81 117 -153 117 -234 0 -63 -13 -75 -82 -75 -64
0 -141 41 -220 117 -81 78 -113 135 -127 223 -17 101 7 118 124 86z"/>
<path d="M2539 3371 c-30 -10 -78 -30 -107 -46 -65 -35 -202 -175 -234 -240
-27 -53 -58 -164 -58 -206 0 -128 117 -222 250 -200 123 21 206 65 301 161
116 117 157 211 166 380 6 104 5 106 -22 138 l-27 32 -106 -1 c-74 0 -124 -6
-163 -18z m176 -142 c10 -30 -4 -115 -28 -168 -11 -25 -51 -78 -90 -118 -82
-85 -153 -123 -234 -126 -71 -3 -87 16 -79 89 8 70 38 132 92 193 95 105 178
150 281 151 44 0 53 -3 58 -21z"/>
<path d="M695 3350 c-36 -14 -169 -164 -197 -222 -42 -84 -51 -146 -45 -287 4
-107 9 -134 30 -181 34 -75 79 -134 129 -170 35 -26 50 -30 103 -30 81 0 136
34 193 120 54 80 73 142 79 262 10 173 -30 291 -138 411 -50 55 -116 109 -130
106 -2 0 -13 -4 -24 -9z m65 -202 c17 -18 44 -61 60 -94 28 -57 30 -70 30
-175 0 -105 -2 -119 -29 -174 -28 -61 -79 -115 -108 -115 -23 0 -73 59 -102
120 -23 49 -26 67 -26 170 0 105 3 120 27 170 32 65 84 130 103 130 8 0 28
-15 45 -32z"/>
<path d="M1413 2985 c-96 -49 -147 -132 -147 -240 0 -89 26 -148 90 -204 87
-76 192 -89 300 -36 91 44 142 131 143 240 1 97 -44 175 -134 233 -32 21 -55
26 -120 30 -71 3 -86 1 -132 -23z m184 -125 c47 -28 67 -65 67 -122 0 -46 -4
-54 -42 -89 -34 -32 -48 -39 -82 -39 -80 0 -140 57 -140 134 0 102 112 168
197 116z"/>
<path d="M3290 2731 c-74 -24 -132 -75 -169 -148 -31 -62 -29 -167 4 -232 85
-169 298 -201 431 -65 42 43 54 64 69 118 17 63 17 69 0 131 -20 75 -74 144
-139 177 -44 23 -153 33 -196 19z m156 -156 c102 -78 47 -235 -83 -235 -144 0
-183 186 -53 253 44 23 91 17 136 -18z"/>
<path d="M2548 2489 c-127 -30 -285 -165 -352 -301 -25 -50 -42 -101 -49 -150
-10 -70 -9 -77 15 -130 45 -97 132 -133 260 -109 89 16 164 58 252 142 138
131 178 223 180 412 1 145 -2 147 -158 146 -61 -1 -128 -5 -148 -10z m162
-134 c18 -22 3 -130 -27 -189 -29 -57 -100 -136 -160 -178 -85 -58 -185 -77
-224 -42 -18 17 -20 26 -15 74 4 30 17 78 31 105 26 55 119 154 176 191 75 47
195 68 219 39z"/>
<path d="M1533 2313 c-59 -20 -127 -98 -148 -168 -18 -62 -52 -108 -92 -123
-16 -5 -49 -17 -74 -26 -135 -48 -199 -213 -133 -344 61 -123 233 -187 366
-136 130 51 369 291 418 421 17 45 21 72 17 124 -13 194 -181 314 -354 252z
m180 -165 c37 -40 42 -58 37 -133 -4 -87 -255 -347 -362 -376 -111 -29 -223
71 -184 164 17 41 47 63 112 83 50 15 106 53 139 93 24 30 54 91 55 111 0 29
41 81 73 95 47 21 86 10 130 -37z"/>
<path d="M490 2113 c-64 -23 -142 -105 -165 -172 -41 -126 18 -266 137 -325
71 -36 168 -36 236 -2 198 102 205 375 12 480 -66 36 -154 43 -220 19z m180
-158 c62 -59 61 -147 0 -199 -61 -51 -148 -41 -195 22 -31 41 -28 132 5 167
34 37 57 45 113 41 36 -2 55 -10 77 -31z"/>
<path d="M3750 2038 c-35 -14 -73 -39 -106 -73 -44 -43 -56 -65 -75 -126 -21
-65 -23 -95 -23 -254 0 -157 3 -189 22 -251 40 -129 142 -212 273 -222 60 -4
75 -1 123 22 66 32 110 82 132 149 22 66 15 128 -24 210 -18 37 -32 78 -32 92
0 14 14 55 32 92 39 82 46 144 24 210 -47 142 -197 208 -346 151z m187 -150
c43 -42 44 -90 3 -172 -25 -49 -30 -71 -30 -131 0 -60 5 -82 30 -131 47 -92
37 -158 -27 -193 -31 -16 -89 -14 -128 5 -85 40 -110 130 -103 364 4 126 8
154 27 194 31 63 81 96 145 96 43 0 55 -5 83 -32z"/>
<path d="M2915 1900 c-221 -103 -207 -414 23 -503 123 -48 277 19 332 145 60
138 -2 301 -137 359 -59 25 -163 25 -218 -1z m165 -125 c74 -38 101 -124 59
-192 -52 -84 -176 -83 -229 2 -40 65 -13 151 60 187 43 22 72 23 110 3z"/>
<path d="M1881 1508 c-119 -27 -211 -142 -211 -264 0 -101 74 -211 168 -251
48 -21 156 -21 203 -1 50 22 116 83 142 132 27 53 30 184 4 232 -43 82 -110
134 -195 153 -29 6 -56 11 -60 10 -4 -1 -27 -6 -51 -11z m127 -150 c42 -26 76
-94 66 -135 -39 -159 -264 -143 -264 19 0 110 106 173 198 116z"/>
<path d="M671 1284 c-18 -23 -21 -41 -21 -123 0 -164 39 -264 146 -380 112
-122 248 -186 374 -179 59 3 75 8 107 34 80 65 102 155 67 275 -29 96 -64 151
-153 239 -126 126 -210 160 -393 160 -103 0 -107 -1 -127 -26z m307 -140 c63
-28 177 -137 209 -201 31 -59 45 -141 29 -173 -11 -23 -16 -25 -82 -24 -58 1
-80 7 -120 30 -65 37 -166 142 -195 201 -26 55 -39 181 -20 192 21 14 125 -1
179 -25z"/>
<path d="M2730 1231 c-109 -35 -199 -147 -200 -247 0 -111 77 -214 185 -248
33 -10 71 -28 83 -40 27 -24 62 -87 62 -111 0 -47 97 -148 160 -165 215 -60
401 153 327 375 -38 113 -263 350 -397 420 -39 20 -177 30 -220 16z m176 -151
c67 -38 214 -177 269 -254 24 -34 46 -77 50 -97 22 -118 -90 -225 -179 -170
-32 20 -66 72 -66 103 0 28 -63 120 -101 148 -22 16 -69 38 -104 50 -77 26
-97 46 -102 107 -6 58 19 96 81 124 57 26 93 23 152 -11z"/>
<path d="M2078 690 c-86 -22 -164 -95 -192 -182 -21 -66 -20 -107 3 -168 38
-100 105 -158 208 -180 108 -23 233 42 288 151 63 123 11 284 -113 352 -55 30
-137 41 -194 27z m145 -160 c64 -56 72 -128 21 -189 -74 -89 -218 -44 -231 71
-14 119 122 195 210 118z"/>
</g>
</svg>
