<?xml version="1.0" standalone="no"?>
<!DOCTYPE svg PUBLIC "-//W3C//DTD SVG 20010904//EN"
 "http://www.w3.org/TR/2001/REC-SVG-20010904/DTD/svg10.dtd">
<svg version="1.0" xmlns="http://www.w3.org/2000/svg"
 width="450.000000pt" height="450.000000pt" viewBox="0 0 450.000000 450.000000"
 preserveAspectRatio="xMidYMid meet">

<g transform="translate(0.000000,450.000000) scale(0.100000,-0.100000)"
fill="#000000" stroke="none">
<path d="M727 3805 c-45 -31 -72 -78 -58 -103 5 -9 148 -155 318 -324 323
-323 338 -334 392 -306 14 7 33 28 44 45 15 27 17 38 8 66 -14 43 -618 647
-647 647 -10 0 -36 -11 -57 -25z"/>
<path d="M2210 3737 c-14 -6 -56 -25 -95 -43 -38 -17 -122 -55 -185 -84 -390
-177 -405 -185 -427 -222 -19 -31 -20 -52 -22 -438 -1 -390 -1 -406 19 -435
26 -40 25 -45 -10 -45 -16 0 -46 -9 -67 -19 -21 -11 -90 -43 -153 -71 -63 -28
-133 -60 -155 -70 -151 -70 -307 -140 -313 -140 -18 0 -72 -61 -72 -82 0 -13
-1 -209 -1 -437 l0 -414 23 -25 c19 -21 179 -103 634 -323 44 -21 88 -39 97
-39 18 0 168 71 529 249 198 98 207 104 219 139 l13 37 14 -37 c14 -35 26 -43
211 -134 366 -181 521 -254 539 -254 17 0 164 69 516 245 129 64 207 109 219
126 17 23 18 54 18 435 0 225 -1 419 -1 432 0 21 -54 82 -72 82 -6 0 -119 51
-313 140 -33 15 -82 38 -110 50 -27 12 -92 42 -143 66 -51 24 -106 44 -123 44
-34 0 -35 5 -9 45 19 29 20 48 20 434 0 397 0 404 -22 439 -23 38 -48 51 -428
222 -63 29 -142 65 -175 80 -79 37 -136 60 -144 59 -3 0 -17 -5 -31 -12z m113
-226 c123 -57 291 -133 314 -142 40 -15 26 -37 -44 -70 -38 -17 -131 -62 -207
-100 l-140 -69 -130 64 c-72 35 -166 80 -208 101 -80 39 -95 59 -55 74 27 10
220 98 312 142 33 15 68 28 78 29 10 0 46 -13 80 -29z m-437 -416 c96 -47 177
-85 180 -85 2 0 22 -11 44 -25 l40 -25 0 -280 c0 -238 -2 -281 -15 -286 -8 -3
-81 27 -162 66 -81 40 -181 88 -220 107 l-73 35 0 289 c0 259 2 289 16 289 9
0 95 -38 190 -85z m924 -204 l0 -289 -92 -45 c-51 -24 -150 -73 -220 -107 -72
-35 -134 -60 -143 -56 -13 5 -15 41 -13 288 l3 283 210 106 c116 58 220 107
233 107 l22 2 0 -289z m-1213 -672 c37 -17 100 -46 138 -64 39 -18 94 -43 123
-55 47 -20 71 -50 40 -50 -11 0 -78 -31 -311 -146 -49 -24 -94 -44 -102 -44
-7 0 -101 43 -209 95 -107 52 -200 95 -205 95 -5 0 -13 4 -16 10 -5 8 191 110
210 110 2 0 46 20 97 44 134 63 111 63 235 5z m1531 -5 c51 -24 95 -44 98 -44
20 0 214 -102 209 -110 -3 -5 -11 -10 -16 -10 -5 0 -98 -43 -205 -95 -108 -52
-202 -95 -209 -95 -7 0 -66 26 -131 59 -66 32 -158 77 -206 101 -49 23 -88 46
-88 50 0 4 24 18 53 30 28 12 79 35 112 50 202 94 260 118 274 113 9 -3 58
-25 109 -49z m-868 -106 c0 -7 -4 -19 -9 -26 -7 -11 -10 -10 -15 3 -10 26 -7
35 9 35 8 0 15 -6 15 -12z m-13 -616 c-1 -97 -2 -15 -2 183 0 198 1 278 2 177
2 -101 2 -263 0 -360z m-1258 392 c254 -121 387 -187 393 -197 12 -19 10 -565
-2 -572 -6 -4 -34 5 -63 18 -277 132 -387 188 -394 204 -9 21 -6 573 4 573 3
0 31 -12 62 -26z m1056 -269 l0 -289 -25 -13 c-73 -38 -432 -213 -436 -213 -2
0 -4 133 -4 295 l0 295 223 110 c122 60 227 108 232 106 6 -2 10 -107 10 -291z
m641 185 l224 -110 0 -295 c0 -162 -1 -295 -3 -295 -3 0 -425 206 -447 219
-13 7 -15 52 -18 287 -2 267 -1 304 14 304 3 0 107 -49 230 -110z m886 -167
c2 -153 -1 -286 -5 -296 -9 -19 -404 -216 -441 -220 -21 -2 -21 0 -23 278 -2
154 0 285 5 291 4 7 75 44 157 84 83 40 182 88 220 106 39 19 73 34 77 34 4 0
9 -125 10 -277z"/>
<path d="M3496 1031 c-41 -27 -57 -69 -41 -107 19 -43 357 -374 382 -374 32 0
123 76 123 103 0 16 -53 75 -177 199 -98 97 -188 181 -200 187 -31 16 -54 14
-87 -8z"/>
</g>
</svg>
