<?xml version="1.0" standalone="no"?>
<!DOCTYPE svg PUBLIC "-//W3C//DTD SVG 20010904//EN"
 "http://www.w3.org/TR/2001/REC-SVG-20010904/DTD/svg10.dtd">
<svg version="1.0" xmlns="http://www.w3.org/2000/svg"
 width="450.000000pt" height="450.000000pt" viewBox="0 0 450.000000 450.000000"
 preserveAspectRatio="xMidYMid meet">

<g transform="translate(0.000000,450.000000) scale(0.100000,-0.100000)"
fill="#000000" stroke="none">
<path d="M709 3782 c-46 -46 -49 -53 -38 -74 16 -31 576 -594 616 -619 37 -23
68 -18 106 17 21 19 27 34 27 67 0 42 -1 44 -302 344 -201 200 -312 304 -331
309 -24 5 -34 0 -78 -44z"/>
<path d="M2255 3243 c-79 -5 -302 -32 -395 -48 -102 -17 -151 -29 -250 -62
-41 -14 -90 -28 -108 -33 -39 -10 -323 -151 -372 -185 -130 -91 -164 -118
-243 -195 -49 -47 -98 -101 -109 -120 -12 -19 -29 -44 -39 -55 -20 -23 -87
-147 -99 -185 -5 -14 -18 -50 -30 -80 -67 -171 -112 -582 -81 -740 34 -174 93
-293 190 -382 77 -71 157 -114 288 -155 l88 -28 1075 0 1075 0 105 27 c220 56
403 169 485 298 64 101 81 140 115 265 28 101 28 460 1 585 -33 149 -62 214
-136 300 -88 103 -183 165 -375 245 -136 57 -221 116 -365 255 -272 262 -432
319 -820 293z m369 -190 c101 -25 154 -60 298 -198 110 -106 207 -181 313
-242 64 -37 179 -93 190 -93 14 0 127 -60 176 -93 70 -47 130 -133 166 -235
25 -75 26 -83 27 -327 l1 -250 -29 -74 c-67 -175 -189 -293 -361 -350 -133
-43 -250 -54 -514 -48 -537 13 -805 88 -991 277 -83 85 -124 157 -160 280 -27
95 -37 286 -21 430 13 125 58 344 77 382 8 15 14 32 14 38 0 17 71 157 112
220 19 30 69 87 109 125 165 156 376 212 593 158z m-746 -64 c-125 -152 -192
-270 -246 -429 -81 -237 -117 -626 -76 -813 57 -265 164 -431 357 -552 82 -52
70 -57 -130 -53 -186 4 -229 13 -338 67 -54 26 -154 132 -197 207 -102 177
-126 441 -64 709 60 260 192 465 456 708 173 160 320 256 238 156z m-468 -126
c0 -5 -16 -26 -36 -48 -112 -124 -263 -350 -286 -430 -4 -11 -16 -45 -28 -75
-33 -85 -65 -236 -80 -374 -18 -173 22 -406 95 -556 42 -87 102 -177 128 -191
9 -6 17 -19 17 -30 0 -19 -4 -20 -52 -14 -246 32 -383 130 -444 317 -22 66
-24 89 -24 267 0 178 3 207 31 345 17 83 36 159 42 171 6 11 16 34 22 51 6 16
33 68 61 113 88 150 289 330 478 430 60 32 76 37 76 24z"/>
<path d="M2356 3010 c-27 -5 -80 -21 -119 -37 -58 -23 -87 -44 -167 -120 -78
-74 -106 -110 -148 -185 -29 -52 -52 -101 -52 -110 0 -8 -9 -35 -19 -59 -18
-40 -34 -102 -62 -244 -18 -94 -29 -321 -18 -411 18 -164 74 -286 177 -388
119 -118 232 -169 497 -225 70 -15 258 -30 465 -37 443 -16 685 86 791 331
l34 80 0 260 c0 246 -1 263 -23 318 -36 93 -58 132 -96 165 -37 32 -183 115
-226 127 -41 12 -199 93 -249 128 -68 47 -199 157 -303 254 -127 119 -198 152
-334 158 -54 2 -121 0 -148 -5z m197 -190 c0 -14 -13 -56 -27 -95 -20 -56 -25
-89 -26 -166 0 -108 17 -175 70 -274 56 -104 70 -134 70 -147 0 -10 -18 -12
-76 -10 -127 7 -239 -36 -323 -121 -29 -30 -63 -71 -75 -90 -63 -104 -161
-205 -190 -194 -33 13 -49 287 -26 450 53 365 175 574 387 658 36 14 69 18
133 16 84 -2 85 -2 83 -27z m289 -188 c136 -130 246 -204 408 -277 47 -21 112
-50 145 -66 36 -16 77 -45 102 -71 58 -64 73 -123 73 -292 l0 -136 -55 29
c-81 43 -155 56 -238 42 -37 -6 -118 -11 -180 -11 -126 0 -170 14 -222 69 -27
29 -30 40 -36 124 -6 75 -14 107 -44 177 -21 47 -43 92 -50 100 -7 8 -25 40
-41 70 -26 51 -28 64 -28 165 0 115 17 175 49 175 8 0 61 -44 117 -98z m-216
-683 c41 -11 46 -16 70 -69 32 -71 70 -109 151 -150 96 -48 227 -61 423 -41
117 11 153 2 211 -55 27 -26 49 -56 49 -67 0 -29 -88 -115 -147 -143 -113 -53
-147 -57 -428 -57 -143 1 -298 6 -345 13 -127 17 -278 47 -345 70 -58 20 -195
95 -195 107 0 3 39 42 86 86 47 44 107 112 134 151 60 89 104 131 155 150 49
18 121 20 181 5z"/>
<path d="M3491 998 c-58 -62 -53 -71 148 -270 132 -132 185 -178 203 -178 38
0 98 68 98 111 0 32 -15 49 -168 202 -163 162 -170 167 -210 167 -33 0 -47 -6
-71 -32z"/>
</g>
</svg>
