<?xml version="1.0" standalone="no"?>
<!DOCTYPE svg PUBLIC "-//W3C//DTD SVG 20010904//EN"
 "http://www.w3.org/TR/2001/REC-SVG-20010904/DTD/svg10.dtd">
<svg version="1.0" xmlns="http://www.w3.org/2000/svg"
 width="450.000000pt" height="450.000000pt" viewBox="0 0 450.000000 450.000000"
 preserveAspectRatio="xMidYMid meet">

<g transform="translate(0.000000,450.000000) scale(0.100000,-0.100000)"
fill="#000000" stroke="none">
<path d="M2182 3908 c-23 -6 -46 -27 -80 -70 -26 -34 -67 -85 -92 -113 -25
-28 -60 -71 -77 -96 -18 -24 -55 -73 -83 -109 -27 -36 -62 -83 -77 -105 -15
-22 -36 -50 -47 -63 -11 -12 -29 -37 -40 -56 -12 -18 -55 -85 -97 -147 -189
-283 -335 -559 -424 -799 -7 -19 -19 -53 -28 -75 -53 -145 -79 -277 -85 -436
-5 -161 7 -293 38 -409 12 -41 25 -90 30 -109 14 -55 117 -255 158 -306 159
-204 341 -329 588 -403 378 -114 777 -40 1095 204 57 43 129 118 191 198 41
52 144 253 158 307 5 19 18 68 30 109 45 170 52 469 14 630 -78 330 -249 694
-513 1089 -42 62 -85 129 -97 147 -11 19 -29 44 -40 56 -11 13 -32 41 -47 63
-15 22 -50 69 -77 105 -28 36 -65 85 -83 110 -17 24 -50 65 -73 90 -22 25 -62
73 -87 107 -26 34 -52 65 -58 68 -24 16 -67 21 -97 13z m62 -269 c10 -17 37
-52 60 -78 22 -26 57 -69 76 -95 19 -26 53 -72 75 -101 35 -47 116 -161 185
-260 47 -68 134 -204 168 -263 21 -35 52 -89 70 -120 54 -93 153 -299 201
-417 28 -67 63 -186 93 -315 17 -73 17 -345 0 -435 -89 -464 -398 -751 -855
-797 -77 -7 -138 -7 -210 0 -453 48 -761 337 -849 797 -17 90 -17 362 0 435
54 230 91 331 209 570 51 102 80 156 153 277 19 32 36 61 38 65 4 9 103 161
132 203 61 88 150 212 185 259 22 29 56 75 75 102 19 26 54 69 76 95 23 26 50
61 60 78 23 39 35 39 58 0z"/>
<path d="M1452 1931 c-31 -29 -32 -32 -32 -111 0 -132 35 -276 100 -409 104
-213 325 -373 580 -420 129 -23 156 -24 199 -2 43 23 55 46 49 101 -5 51 -40
70 -144 81 -49 5 -118 18 -154 29 -81 24 -191 88 -248 143 -49 48 -114 151
-144 229 -23 61 -48 200 -48 272 0 41 -5 53 -34 82 -43 43 -80 45 -124 5z"/>
<path d="M721 3766 l-54 -55 31 -38 c17 -21 172 -179 345 -351 311 -310 314
-313 352 -310 30 2 44 11 68 40 54 68 57 64 -316 436 -209 208 -341 332 -353
332 -11 0 -44 -24 -73 -54z"/>
<path d="M3314 1186 c-25 -25 -34 -43 -34 -67 0 -30 26 -59 263 -299 144 -146
268 -267 276 -268 19 -5 121 98 121 123 0 24 -478 505 -527 529 -46 23 -61 20
-99 -18z"/>
</g>
</svg>
