<?xml version="1.0" standalone="no"?>
<!DOCTYPE svg PUBLIC "-//W3C//DTD SVG 20010904//EN"
 "http://www.w3.org/TR/2001/REC-SVG-20010904/DTD/svg10.dtd">
<svg version="1.0" xmlns="http://www.w3.org/2000/svg"
 width="450.000000pt" height="450.000000pt" viewBox="0 0 450.000000 450.000000"
 preserveAspectRatio="xMidYMid meet">

<g transform="translate(0.000000,450.000000) scale(0.100000,-0.100000)"
fill="#000000" stroke="none">
<path d="M3000 3510 c0 -5 -16 -12 -35 -16 -25 -4 -47 -20 -75 -52 -37 -41
-40 -50 -40 -101 0 -32 5 -62 10 -67 6 -6 13 -39 16 -75 l6 -64 -104 -100
c-197 -188 -372 -295 -608 -371 -286 -92 -616 -97 -947 -12 -62 15 -135 28
-162 28 -122 0 -221 -94 -221 -210 0 -85 101 -264 199 -353 47 -41 63 -66 44
-68 -5 0 -42 -1 -83 -3 -139 -4 -213 -46 -256 -144 -32 -73 -30 -104 10 -187
26 -55 54 -90 127 -161 52 -50 124 -110 162 -134 37 -24 67 -47 67 -52 0 -5
-14 -17 -31 -26 -84 -45 -149 -140 -149 -216 0 -96 110 -211 286 -301 327
-166 687 -165 1124 1 170 65 372 172 460 243 25 20 59 45 75 56 44 27 279 261
312 309 15 22 42 59 60 80 18 22 33 44 33 50 0 5 7 17 15 26 18 20 113 202
125 240 5 14 18 50 29 80 99 258 117 606 46 859 -36 126 -109 290 -176 391
-48 74 -62 112 -64 170 -3 88 -37 148 -92 164 -13 4 -23 12 -23 17 0 5 -31 9
-70 9 -38 0 -70 -4 -70 -10z m155 -457 c89 -153 126 -240 156 -373 54 -238 23
-553 -78 -780 -88 -199 -192 -347 -349 -501 -151 -146 -276 -237 -424 -305
-30 -14 -79 -37 -108 -50 -79 -37 -242 -88 -382 -121 -55 -12 -120 -17 -240
-17 -168 0 -187 2 -330 51 -107 37 -260 138 -260 173 0 28 20 38 126 64 92 22
223 62 333 101 25 9 82 34 128 56 47 21 86 39 88 39 12 0 223 126 290 174 44
31 98 68 120 83 56 37 319 298 361 358 19 27 55 77 79 110 109 148 236 417
306 645 17 58 43 137 56 175 13 39 31 96 39 129 15 63 21 76 32 76 4 -1 30
-39 57 -87z m-405 -331 c0 -29 -140 -188 -229 -259 -131 -106 -216 -160 -346
-224 -181 -88 -417 -156 -611 -174 -66 -7 -75 -5 -145 27 -84 39 -164 92 -227
152 -57 53 -156 201 -148 221 9 23 9 23 251 -35 69 -17 296 -40 395 -40 103 0
306 22 385 41 220 53 433 147 600 266 68 48 75 50 75 25z m-324 -599 c-20 -39
-258 -271 -336 -330 -36 -26 -92 -66 -125 -87 -33 -22 -72 -47 -86 -57 -40
-27 -215 -114 -307 -154 -93 -39 -116 -41 -182 -20 -159 51 -253 105 -358 209
-87 85 -115 124 -103 144 5 8 87 13 281 16 151 3 308 10 350 16 293 42 508
106 725 216 77 39 143 72 148 73 4 0 1 -11 -7 -26z"/>
<path d="M3109 2415 c-27 -15 -34 -29 -68 -135 -62 -197 -133 -339 -253 -504
-55 -75 -192 -221 -238 -252 -19 -14 -64 -45 -100 -70 -88 -62 -184 -109 -310
-150 -76 -26 -113 -44 -132 -65 -37 -39 -37 -79 0 -121 49 -54 119 -42 348 58
58 26 121 57 140 70 19 13 37 24 40 24 17 0 204 153 277 227 87 88 120 131
200 254 62 96 64 99 93 159 14 30 35 73 46 95 31 64 78 197 99 282 15 62 3 95
-46 125 -36 21 -61 22 -96 3z"/>
</g>
</svg>
