<?xml version="1.0" standalone="no"?>
<!DOCTYPE svg PUBLIC "-//W3C//DTD SVG 20010904//EN"
 "http://www.w3.org/TR/2001/REC-SVG-20010904/DTD/svg10.dtd">
<svg version="1.0" xmlns="http://www.w3.org/2000/svg"
 width="450.000000pt" height="450.000000pt" viewBox="0 0 450.000000 450.000000"
 preserveAspectRatio="xMidYMid meet">

<g transform="translate(0.000000,450.000000) scale(0.100000,-0.100000)"
fill="#000000" stroke="none">
<path d="M3515 4300 c-5 -5 -32 -28 -60 -51 -27 -23 -216 -203 -419 -401 -203
-197 -374 -358 -380 -358 -37 0 -240 254 -317 396 -57 106 -136 220 -165 241
-48 33 -61 34 -92 8 -24 -20 -30 -35 -35 -79 -10 -96 -46 -154 -169 -268 -164
-154 -245 -272 -289 -426 -10 -35 -20 -67 -23 -69 -2 -3 -39 -14 -82 -24 -117
-30 -180 -66 -315 -179 -18 -15 -33 -40 -38 -60 l-7 -35 -69 0 c-88 -1 -135
-24 -225 -111 -49 -47 -75 -64 -105 -69 -122 -23 -235 -132 -235 -229 0 -20
15 -63 36 -103 25 -48 40 -93 49 -153 7 -47 23 -121 35 -165 12 -44 26 -93 30
-110 13 -49 45 -134 88 -237 201 -470 544 -790 996 -929 66 -20 122 -42 124
-47 7 -21 -32 -85 -62 -103 -42 -25 -67 -24 -157 8 -69 24 -81 26 -117 15 -56
-17 -96 -53 -126 -114 -63 -127 -1 -237 159 -281 161 -44 376 -67 634 -67 535
0 818 65 862 197 25 78 -16 188 -93 243 -50 36 -76 37 -162 5 -77 -29 -106
-31 -146 -10 -33 17 -87 102 -74 115 5 5 46 18 92 30 46 11 124 38 174 60 535
230 884 712 1004 1385 13 73 25 111 46 142 25 37 28 51 28 121 0 78 -1 80 -40
124 -41 47 -120 92 -186 104 -27 5 -56 24 -101 65 -69 65 -144 103 -242 124
-61 13 -69 18 -135 88 -84 88 -152 135 -238 167 -16 5 -28 16 -28 23 0 7 129
123 288 257 158 134 339 288 403 343 64 54 126 115 137 136 40 71 23 166 -40
231 -54 55 -65 60 -136 60 -37 -1 -71 -5 -77 -10z m120 -145 c31 -30 32 -69 2
-98 -12 -12 -182 -157 -377 -322 -195 -165 -381 -325 -413 -355 -61 -56 -75
-59 -101 -17 -9 15 2 30 69 95 44 42 208 201 365 353 418 404 405 395 455 344z
m-1424 -302 c24 -43 46 -82 48 -88 18 -45 131 -186 296 -371 44 -49 98 -117
119 -151 42 -67 67 -83 126 -83 60 0 141 -20 185 -45 53 -31 155 -128 155
-148 0 -19 -89 -82 -187 -133 -37 -19 -78 -45 -90 -56 -30 -28 -29 -63 2 -84
31 -20 68 -13 159 33 83 41 113 61 188 125 31 26 62 48 70 48 24 -1 145 -57
182 -85 42 -32 91 -124 81 -154 -7 -24 -54 -39 -210 -70 -318 -63 -503 -76
-1110 -76 -623 0 -873 17 -1165 80 -144 31 -179 44 -186 70 -8 34 13 91 49
132 29 33 179 113 211 113 7 0 30 -18 51 -41 75 -77 266 -189 324 -189 53 0
82 68 44 102 -10 9 -52 33 -93 53 -95 48 -190 120 -190 145 0 22 94 101 159
135 52 25 133 45 190 45 58 0 70 15 81 103 19 150 78 246 265 429 86 83 133
138 155 179 17 32 35 59 39 59 4 0 27 -35 52 -77z m1515 -1184 c162 -100 3
-226 -441 -347 -125 -34 -314 -62 -660 -97 -228 -23 -689 -20 -930 5 -412 44
-682 106 -893 207 -97 46 -176 108 -185 145 -5 17 4 31 34 61 53 49 81 48 90
-6 15 -94 125 -141 454 -197 235 -39 358 -45 985 -45 631 0 826 8 1050 45 327
53 440 103 440 195 0 61 6 65 56 34z m-2951 -360 c363 -160 901 -239 1555
-226 563 12 1014 89 1308 225 74 34 79 25 48 -89 -98 -361 -207 -579 -396
-796 -189 -218 -483 -387 -790 -456 -80 -17 -128 -21 -305 -21 -196 0 -217 2
-319 27 -470 117 -826 426 -1030 893 -74 169 -155 431 -141 454 9 14 16 13 70
-11z m1498 -1496 l158 5 25 -51 c38 -76 69 -113 119 -142 66 -39 134 -43 223
-11 l74 25 24 -26 c28 -30 31 -74 7 -94 -44 -37 -189 -65 -433 -85 -154 -13
-224 -13 -415 -4 -372 18 -575 63 -575 128 0 23 40 82 56 82 7 0 47 -11 88
-25 88 -29 96 -30 165 -9 70 20 127 74 162 151 16 33 34 63 41 65 6 2 37 0 68
-5 30 -5 126 -7 213 -4z"/>
<path d="M2285 3433 c-62 -24 -109 -27 -143 -9 -82 43 -157 -15 -104 -80 31
-39 76 -54 161 -54 93 0 158 25 185 70 21 36 20 46 -4 70 -24 24 -42 24 -95 3z"/>
<path d="M1797 3112 c-56 -61 30 -143 208 -198 85 -26 315 -26 400 0 168 51
266 146 207 199 -27 25 -45 21 -125 -22 -112 -61 -167 -75 -287 -75 -122 0
-208 24 -291 80 -57 38 -88 43 -112 16z"/>
</g>
</svg>
