<?xml version="1.0" standalone="no"?>
<!DOCTYPE svg PUBLIC "-//W3C//DTD SVG 20010904//EN"
 "http://www.w3.org/TR/2001/REC-SVG-20010904/DTD/svg10.dtd">
<svg version="1.0" xmlns="http://www.w3.org/2000/svg"
 width="450.000000pt" height="450.000000pt" viewBox="0 0 450.000000 450.000000"
 preserveAspectRatio="xMidYMid meet">

<g transform="translate(0.000000,450.000000) scale(0.100000,-0.100000)"
fill="#000000" stroke="none">
<path d="M2305 4289 c-5 -5 -26 -20 -45 -32 -19 -12 -48 -42 -65 -65 l-30 -44
-5 -192 -5 -191 -157 -238 -158 -237 0 -73 c0 -78 4 -88 38 -106 37 -20 82 17
82 67 0 11 7 23 16 26 9 3 336 6 729 6 592 0 714 -2 724 -14 8 -9 11 -90 9
-272 l-3 -259 -45 3 c-75 5 -179 -18 -290 -63 -146 -59 -201 -69 -258 -46 -48
20 -70 72 -80 197 -15 169 -52 236 -165 296 -36 20 -57 23 -152 23 -133 0
-194 -18 -367 -108 -114 -59 -117 -60 -142 -44 -33 22 -59 21 -79 -1 -15 -16
-17 -52 -17 -303 0 -156 -4 -290 -8 -297 -7 -10 -19 -11 -55 -3 -61 14 -126 1
-188 -38 -57 -35 -71 -38 -90 -15 -37 45 -134 69 -211 53 -46 -10 -52 -9 -88
16 -44 31 -104 54 -140 55 -18 0 -89 65 -290 265 -268 267 -303 295 -370 295
-35 0 -97 -29 -122 -57 -24 -26 -48 -87 -48 -121 0 -58 31 -99 200 -267 94
-93 176 -178 181 -188 8 -14 2 -26 -36 -62 -48 -48 -61 -71 -80 -150 l-11 -50
-87 -5 c-77 -5 -89 -8 -116 -34 -16 -15 -35 -41 -42 -57 -13 -33 -14 -24 57
-659 19 -174 35 -239 84 -347 86 -186 215 -320 395 -411 83 -42 210 -82 261
-82 42 0 52 -10 64 -64 13 -59 25 -82 59 -119 56 -61 -52 -57 1550 -57 l1470
0 15 22 c14 20 16 118 16 853 0 650 -3 835 -12 847 -25 30 -50 37 -80 22 l-28
-15 0 -793 c0 -437 -3 -801 -6 -810 -5 -14 -37 -16 -253 -16 -179 0 -250 3
-259 12 -9 9 -12 340 -12 1430 0 1391 0 1417 19 1428 12 6 110 10 250 10 195
0 232 -2 245 -16 14 -14 16 -74 16 -518 0 -475 1 -504 18 -519 27 -24 58 -21
81 9 21 26 21 36 21 569 l0 543 -165 248 -165 249 0 178 c0 156 -2 182 -19
216 -22 41 -78 95 -110 106 -12 3 -21 11 -21 16 0 13 -1412 11 -1425 -2z
m1378 -119 c10 0 32 -13 48 -30 l30 -29 -3 -148 c-3 -146 -3 -148 -26 -151
-37 -6 -52 15 -52 71 0 56 -19 87 -54 87 -43 0 -66 -36 -66 -103 0 -49 -9 -57
-64 -57 -43 0 -56 16 -56 70 0 54 -22 90 -55 90 -40 0 -65 -36 -65 -96 0 -57
-7 -64 -64 -64 -43 0 -56 16 -56 70 0 54 -22 90 -55 90 -39 0 -65 -37 -65 -90
0 -54 -13 -70 -56 -70 -57 0 -64 7 -64 64 0 64 -20 96 -60 96 -38 0 -60 -32
-60 -90 0 -54 -13 -70 -56 -70 -57 0 -64 7 -64 64 0 64 -20 96 -60 96 -38 0
-60 -32 -60 -90 0 -55 -13 -70 -59 -70 -51 0 -58 8 -63 74 -5 63 -22 86 -64
86 -32 0 -54 -37 -54 -91 0 -54 -17 -74 -56 -65 l-25 7 3 150 3 151 30 24 c16
13 38 24 50 26 14 2 1000 1 1318 -2z m12 -490 c3 -5 -45 -85 -107 -177 l-113
-168 -719 -3 c-396 -1 -723 1 -727 5 -8 8 201 330 223 344 19 12 1435 11 1443
-1z m234 -196 c53 -79 88 -141 83 -146 -5 -5 -91 -7 -193 -6 -156 3 -184 5
-183 18 2 24 174 270 188 270 7 0 55 -61 105 -136z m-1378 -547 c56 -29 89
-89 89 -162 0 -247 120 -379 314 -345 58 11 139 36 161 50 25 17 126 50 180
60 64 11 118 5 135 -15 7 -8 9 -358 8 -1101 l-3 -1089 -539 -3 -538 -2 7 46
c9 66 14 74 44 79 261 51 448 166 586 360 111 157 141 262 180 640 9 88 23
212 31 275 19 156 18 219 -5 253 -35 54 -57 62 -185 67 -133 6 -124 0 -150 91
-19 66 -71 131 -130 161 -58 30 -157 29 -218 -2 l-45 -22 -39 20 c-53 26 -107
33 -166 21 -47 -10 -50 -9 -104 26 -47 31 -65 37 -129 42 l-75 6 0 183 0 183
108 64 c169 100 267 135 378 136 45 1 72 -5 105 -22z m-1894 -339 c128 -128
233 -240 233 -250 0 -25 -35 -41 -73 -33 -24 5 -85 59 -249 223 -120 119 -218
225 -218 234 0 23 35 58 57 58 9 0 122 -104 250 -232z m480 -372 c41 -44 47
-106 17 -154 -14 -21 -21 -23 -82 -20 l-67 3 -6 42 c-3 22 -13 59 -23 81 -10
23 -16 48 -12 57 9 23 46 35 96 31 35 -3 51 -11 77 -40z m975 7 c16 -15 33
-44 40 -64 9 -31 8 -43 -8 -76 -18 -37 -21 -38 -77 -41 -68 -4 -82 5 -91 56
-3 20 -15 55 -26 76 -15 31 -17 42 -8 54 34 41 125 38 170 -5z m-1277 -66 c39
-39 53 -80 35 -102 -18 -22 -232 -22 -250 0 -17 20 4 70 44 108 25 22 40 27
84 27 48 0 58 -4 87 -33z m575 16 c35 -20 63 -70 59 -103 -4 -23 -8 -25 -69
-28 -105 -5 -108 -3 -104 70 1 35 3 66 3 71 2 14 83 7 111 -10z m394 -4 c30
-24 56 -69 56 -98 0 -28 -24 -32 -150 -29 l-105 3 -3 35 c-2 30 3 42 33 73 33
34 41 37 89 37 39 0 60 -6 80 -21z m607 -18 c29 -28 39 -47 39 -70 0 -37 -17
-43 -110 -39 l-65 3 0 60 c0 84 1 85 52 85 39 0 51 -5 84 -39z m298 14 c37
-32 58 -89 41 -110 -16 -19 -153 -21 -168 -2 -12 15 -26 113 -17 127 3 5 30
10 60 10 43 0 60 -5 84 -25z m383 -340 c-2 -49 -8 -95 -14 -102 -8 -10 -221
-13 -1085 -13 -1172 0 -1124 2 -1139 -56 -5 -19 -1 -32 15 -47 l22 -22 1081
-3 c846 -2 1084 -5 1090 -15 11 -18 -2 -80 -20 -94 -12 -10 -292 -13 -1324
-13 -1282 0 -1307 0 -1318 19 -15 29 -13 91 4 97 8 3 69 6 136 7 108 2 123 4
136 21 20 28 17 60 -7 82 -18 16 -42 20 -158 24 l-136 5 -13 88 c-8 49 -11 95
-8 103 5 12 197 14 1373 12 l1368 -3 -3 -90z m-55 -501 c9 -25 -25 -215 -52
-283 -97 -250 -330 -438 -582 -472 -50 -6 -313 -9 -733 -6 -646 3 -656 4 -719
25 -210 73 -358 197 -450 379 -17 34 -38 83 -46 110 -20 63 -45 231 -38 249 4
12 192 14 1309 14 1188 0 1305 -1 1311 -16z m-789 -915 c2 -18 -6 -36 -27 -57
l-29 -32 -457 0 -457 0 -29 29 c-27 27 -38 69 -22 84 3 4 234 6 512 5 l506 -3
3 -26z"/>
</g>
</svg>
